<svg width="44" height="38" viewBox="0 3 44 38" fill="none" xmlns="http://www.w3.org/2000/svg">
<path fill-rule="evenodd" clip-rule="evenodd" d="M17.3997 31.2722C15.9602 31.2722 15.1465 32.1238 14.9379 33.8058L14.771 35.5516C14.7084 36.2755 14.3746 36.68 13.7487 36.7652C13.5818 36.7652 13.4983 36.8503 13.4983 37.0207V37.7232C13.4983 37.8723 13.5818 37.9574 13.7487 37.9574C15.1256 37.9574 15.8767 37.1271 16.0436 35.4877L16.2105 33.9548C16.2522 33.3799 16.3565 33.018 16.5026 32.8477C16.6695 32.6348 17.0033 32.5283 17.4623 32.5283H18.5472V37.6594C18.5472 37.8084 18.6098 37.8936 18.7767 37.8936H19.5694C19.7155 37.8936 19.7989 37.8084 19.7989 37.6594V31.5276C19.7989 31.3573 19.7155 31.2722 19.5694 31.2722H17.3997Z" fill="black"/>
<path fill-rule="evenodd" clip-rule="evenodd" d="M8.49123 35.1045V31.5276C8.49123 31.3573 8.40778 31.2721 8.24087 31.2721H7.42722C7.28117 31.2721 7.19772 31.3573 7.19772 31.5276V35.5303C7.19772 37.1697 7.96965 38 9.49265 38C10.2437 38 10.9322 37.7232 11.5998 37.1697L11.7458 37.7445C11.8084 37.851 11.8919 37.8723 11.9545 37.8723H12.5178C12.6847 37.8723 12.7681 37.8084 12.7681 37.6594V31.5063C12.7681 31.336 12.6638 31.2508 12.4969 31.2508H11.725C11.5581 31.2508 11.4746 31.336 11.4746 31.5063V35.8071C10.9948 36.3819 10.3898 36.68 9.70128 36.68C8.88762 36.7013 8.49123 36.169 8.49123 35.1045Z" fill="black"/>
<path fill-rule="evenodd" clip-rule="evenodd" d="M6.23803 34.8916C6.23803 32.8477 5.15315 31.8257 2.96254 31.8257H1.33523V29.8031H5.11143C5.27833 29.8031 5.34092 29.6966 5.36178 29.5263V28.7811C5.34092 28.5895 5.27833 28.5044 5.11143 28.5044H0.250356C0.0834519 28.5044 0 28.6108 0 28.7811V35.0832C0 36.9568 0.876245 37.8936 2.60787 37.8936H2.83736C5.11143 37.9362 6.23803 36.9142 6.23803 34.8916ZM3.00427 33.0819C4.25605 33.0819 4.88193 33.6993 4.88193 34.9129C4.88193 36.0839 4.25605 36.68 3.00427 36.7013H2.58701C1.75249 36.68 1.31437 36.2116 1.31437 35.2748V33.1032H3.00427V33.0819Z" fill="black"/>
<path fill-rule="evenodd" clip-rule="evenodd" d="M38.7008 33.9335H35.7383V31.5276C35.7383 31.3573 35.6548 31.2722 35.4879 31.2722H34.6951C34.5491 31.2722 34.4865 31.3573 34.4865 31.5276V37.6594C34.4656 37.8084 34.5491 37.8936 34.6951 37.8936H35.4879C35.6548 37.8936 35.7383 37.8084 35.7383 37.6594V35.1258H38.7008V37.6594C38.7008 37.8084 38.8052 37.8936 38.9512 37.8936H39.7231C39.89 37.8936 39.9735 37.8084 39.9735 37.6594V31.5276C39.9735 31.3573 39.89 31.2722 39.7231 31.2722H38.9512C38.7843 31.2722 38.7008 31.3573 38.7008 31.5276V33.9335Z" fill="black"/>
<path fill-rule="evenodd" clip-rule="evenodd" d="M32.7549 31.2722H31.9621C31.7743 31.2722 31.6909 31.3573 31.6909 31.5276V35.8284C31.211 36.4032 30.6268 36.7013 29.9175 36.7013C29.1247 36.7013 28.7283 36.169 28.7283 35.1045V31.5276C28.7283 31.3573 28.6449 31.2722 28.4988 31.2722H27.706C27.5183 31.2722 27.4348 31.3573 27.4348 31.5276V35.5303C27.4348 37.1697 28.2067 38 29.7297 38C30.5434 38 31.2527 37.7233 31.8578 37.1697L31.9829 37.7445C32.0455 37.851 32.1081 37.8723 32.1916 37.8723H32.7549C32.9009 37.8723 32.9844 37.8084 32.9844 37.6594V31.5064C32.9844 31.3573 32.9009 31.2722 32.7549 31.2722Z" fill="black"/>
<path fill-rule="evenodd" clip-rule="evenodd" d="M32.9635 28.8018C32.9635 28.6102 32.8801 28.525 32.7131 28.525H27.706C27.5183 28.525 27.4348 28.6315 27.4348 28.8018V29.547C27.4348 29.7173 27.5391 29.8237 27.706 29.8237H32.7131C32.8801 29.8237 32.9635 29.7173 32.9635 29.547V28.8018Z" fill="black"/>
<path fill-rule="evenodd" clip-rule="evenodd" d="M24.6183 32.5283C24.7435 32.6987 24.8061 32.9754 24.8061 33.3587V33.5077L23.3874 33.5716C21.7809 33.678 20.9881 34.4019 20.9881 35.7645C20.9881 37.2336 21.8018 37.9788 23.4291 37.9788C24.0133 37.9788 24.5766 37.8297 25.0981 37.4891L25.2025 37.7233C25.3068 37.8297 25.3694 37.851 25.4319 37.851H25.9327C26.0578 37.851 26.1204 37.7871 26.1204 37.6381V33.3161C26.1204 31.7832 25.2859 30.9954 23.596 30.9954C22.8658 30.9954 22.219 31.1019 21.6557 31.3361C21.5514 31.4212 21.5097 31.5064 21.5097 31.5703V32.3154C21.5306 32.4219 21.5723 32.4858 21.614 32.5283C21.7183 32.5496 21.7809 32.5496 21.8226 32.5496C22.3442 32.3367 22.9492 32.2516 23.596 32.2516C24.0967 32.2941 24.4305 32.3793 24.6183 32.5283ZM23.4291 36.7652C22.6989 36.7652 22.3442 36.4245 22.3442 35.7645C22.3234 35.1045 22.678 34.7639 23.3665 34.7L24.7852 34.551L24.8061 36.3394C24.3262 36.6374 23.8672 36.7652 23.4291 36.7652Z" fill="black"/>
<path fill-rule="evenodd" clip-rule="evenodd" d="M44 31.3147L43.9791 31.2722H43.7079L43.2907 32.2515L42.8943 31.2722H42.6022V32.8264H42.8525V31.7406L43.1863 32.5922H43.395L43.7705 31.7406L43.7288 32.7838L43.7705 32.8264H43.9791L44 32.7838V31.3147Z" fill="black"/>
<path fill-rule="evenodd" clip-rule="evenodd" d="M42.4144 31.3147L42.3727 31.2722H41.3713V31.5276H41.7468V32.7838L41.7885 32.8264H41.9763V31.5276H42.3727L42.4144 31.4851V31.3147Z" fill="black"/>
<path fill-rule="evenodd" clip-rule="evenodd" d="M19.8407 6C25.1607 6 29.4794 10.4072 29.4794 15.8363C29.4794 21.2655 25.1607 25.6727 19.8407 25.6727C14.5206 25.6727 10.202 21.2655 10.202 15.8363C10.202 10.4072 14.5206 6 19.8407 6Z" fill="url(#paint0_linear)"/>
<path fill-rule="evenodd" clip-rule="evenodd" d="M12.6221 9.32136C17.2745 8.91683 22.386 8.89554 27.0593 9.32136C25.2859 7.27745 22.7198 6 19.8407 6C16.9616 6 14.3955 7.27745 12.6221 9.32136Z" fill="black"/>
<path fill-rule="evenodd" clip-rule="evenodd" d="M27.1636 22.2661C22.6363 22.628 17.2537 22.6493 12.5387 22.2661C14.312 24.3739 16.9199 25.6939 19.8616 25.6939C22.7615 25.6939 25.3902 24.3526 27.1636 22.2661Z" fill="black"/>
<path fill-rule="evenodd" clip-rule="evenodd" d="M10.5149 13.3453C16.7947 13.2388 22.9075 13.2175 29.1664 13.3453C29.3751 14.1543 29.4794 14.9847 29.4794 15.8363C29.4794 16.5815 29.3959 17.3267 29.2499 18.008C22.9075 18.1996 16.6487 18.157 10.4315 18.008C10.2854 17.3054 10.202 16.5815 10.202 15.8363C10.202 14.9847 10.3063 14.133 10.5149 13.3453Z" fill="black"/>
<path fill-rule="evenodd" clip-rule="evenodd" d="M34.0275 10.5349C34.0275 15.9215 29.7297 20.2861 24.4514 20.2861C19.1522 20.2861 14.8753 15.9215 14.8753 10.5349C14.8753 5.14836 19.1731 0.783754 24.4514 0.783754C29.7297 0.783754 34.0275 5.14836 34.0275 10.5349Z" fill="url(#paint1_radial)"/>
<path fill-rule="evenodd" clip-rule="evenodd" d="M19.8407 6C25.1607 6 29.4794 10.4072 29.4794 15.8363C29.4794 21.2655 25.1607 25.6727 19.8407 25.6727C14.5206 25.6727 10.202 21.2655 10.202 15.8363C10.202 10.4072 14.5206 6 19.8407 6Z" fill="url(#paint2_radial)"/>
<defs>
<linearGradient id="paint0_linear" x1="10.1978" y1="15.8431" x2="29.4898" y2="15.8431" gradientUnits="userSpaceOnUse">
<stop stop-color="#D89141"/>
<stop offset="0.1" stop-color="#FBB034"/>
<stop offset="0.3" stop-color="#FFC233"/>
<stop offset="0.4893" stop-color="#FFDD2F"/>
<stop offset="0.65" stop-color="#FFF32A"/>
<stop offset="0.737" stop-color="#FFE42F"/>
<stop offset="0.8871" stop-color="#F2C837"/>
<stop offset="1" stop-color="#E6B13B"/>
</linearGradient>
<radialGradient id="paint1_radial" cx="0" cy="0" r="1" gradientUnits="userSpaceOnUse" gradientTransform="translate(24.4391 10.5326) scale(9.56738 9.76356)">
<stop stop-color="white" stop-opacity="0.7"/>
<stop offset="1" stop-color="white" stop-opacity="0"/>
</radialGradient>
<radialGradient id="paint2_radial" cx="0" cy="0" r="1" gradientUnits="userSpaceOnUse" gradientTransform="translate(19.8438 15.8431) scale(9.64573 9.8435)">
<stop offset="0.9" stop-color="white" stop-opacity="0"/>
<stop offset="1" stop-color="white" stop-opacity="0.3"/>
</radialGradient>
</defs>
</svg>
