<svg width="16" height="13" viewBox="0 -1 16 13" fill="none" xmlns="http://www.w3.org/2000/svg">
<path d="M7.99996 2.66667C9.83996 2.66667 11.3333 4.16 11.3333 6C11.3333 6.43333 11.2466 6.84 11.0933 7.22L13.04 9.16667C14.0466 8.32667 14.84 7.24 15.3266 6C14.1733 3.07333 11.3266 1 7.99329 1C7.05996 1 6.16663 1.16667 5.33996 1.46667L6.77996 2.90667C7.15996 2.75333 7.56663 2.66667 7.99996 2.66667ZM1.33329 0.846667L2.85329 2.36667L3.15996 2.67333C2.05329 3.53333 1.18663 4.68 0.666626 6C1.81996 8.92667 4.66663 11 7.99996 11C9.03329 11 10.02 10.8 10.92 10.44L11.2 10.72L13.1533 12.6667L14 11.82L2.17996 0L1.33329 0.846667ZM5.01996 4.53333L6.05329 5.56667C6.01996 5.70667 5.99996 5.85333 5.99996 6C5.99996 7.10667 6.89329 8 7.99996 8C8.14663 8 8.29329 7.98 8.43329 7.94667L9.46663 8.98C9.01996 9.2 8.52663 9.33333 7.99996 9.33333C6.15996 9.33333 4.66663 7.84 4.66663 6C4.66663 5.47333 4.79996 4.98 5.01996 4.53333ZM7.89329 4.01333L9.99329 6.11333L10.0066 6.00667C10.0066 4.9 9.11329 4.00667 8.00663 4.00667L7.89329 4.01333Z" fill="#A6AFB7"/>
</svg>
