<svg width="105" height="32" viewBox="0 0 105 32" fill="none" xmlns="http://www.w3.org/2000/svg">
<path d="M16.8168 8.05893V16.3064C16.8168 16.6834 16.5373 16.9661 16.1646 16.9661H15.1864C15.1398 16.9661 15.0932 17.0133 15.0932 17.0604V23.9882C15.3261 23.9882 15.559 24.0354 15.8385 24.0354C20.2174 24.0354 23.7578 20.4536 23.7578 16.0236C23.7578 11.9234 20.7298 8.53021 16.8168 8.05893ZM16.6305 20.4065C16.0715 20.4065 15.6522 19.9352 15.6522 19.4168C15.6522 18.8513 16.118 18.4271 16.6305 18.4271C17.1895 18.4271 17.6087 18.8984 17.6087 19.4168C17.6553 19.9352 17.1895 20.4065 16.6305 20.4065ZM18.9597 20.4065C18.4007 20.4065 17.9814 19.9352 17.9814 19.4168C17.9814 18.8513 18.4472 18.4271 18.9597 18.4271C19.5187 18.4271 19.9379 18.8984 19.9379 19.4168C19.9379 19.9352 19.5187 20.4065 18.9597 20.4065ZM21.2889 20.4065C20.7298 20.4065 20.3106 19.9352 20.3106 19.4168C20.3106 18.8513 20.7764 18.4271 21.2889 18.4271C21.8479 18.4271 22.2671 18.8984 22.2671 19.4168C22.2671 19.9352 21.8479 20.4065 21.2889 20.4065Z" fill="#00985F"/>
<path d="M15.8385 8.01179C11.4596 8.01179 7.91925 11.5935 7.91925 16.0236C7.91925 19.8881 10.5745 23.0928 14.1615 23.8468V16.6362C14.1615 16.3063 14.441 16.0236 14.7671 15.9764H15.0932H15.7453C15.7919 15.9764 15.8385 15.9293 15.8385 15.8822V8.01179ZM14.3012 14.6097C13.7422 14.6097 13.323 14.1384 13.323 13.62C13.323 13.0545 13.7888 12.6303 14.3012 12.6303C14.8602 12.6303 15.2795 13.1016 15.2795 13.62C15.2795 14.1384 14.8602 14.6097 14.3012 14.6097Z" fill="#00985F"/>
<path d="M95.1242 12.3947V15.4109H91.118V12.3947H89.1149V20.4065H91.118V17.1547H95.1242V20.4065H97.0808V12.3947H95.1242Z" fill="#00985F"/>
<path d="M62.1429 13.2902C61.8168 12.5833 61.1646 12.2062 60.5124 12.2062C59.8603 12.2062 59.2081 12.5833 58.882 13.2902L55.6677 20.4065H57.764L58.4628 18.7099H62.5621L63.2609 20.4065H65.3572L62.1429 13.2902ZM59.1149 17.1076L60.3261 14.1856C60.3727 14.0914 60.4193 14.0914 60.4659 14.0914C60.5124 14.0914 60.6056 14.0914 60.6056 14.1856L61.8168 17.1076H59.1149Z" fill="#00985F"/>
<path d="M38.5714 10.9338C37.6398 10.9338 37.0342 11.4522 36.6149 12.4419L34.0528 18.4743L31.4907 12.4419C31.0714 11.4522 30.4658 10.9338 29.5342 10.9338C28.6491 10.9338 27.764 11.5464 27.764 12.9131V20.3594H29.7205V13.1488L32.3292 19.1341C32.6553 19.9824 33.2609 20.5008 34.0528 20.5008C34.8913 20.5008 35.4503 19.9824 35.7764 19.1341L38.3851 13.1488V20.4065H40.3416V12.9603C40.3416 11.5936 39.4565 10.9338 38.5714 10.9338Z" fill="#00985F"/>
<path d="M43.8354 18.7099C43.7423 18.7099 43.6491 18.6156 43.6491 18.5214V17.1075H48.587V15.4581H43.6491V14.2327C43.6491 14.1385 43.7423 14.0442 43.8354 14.0442H48.7267V12.3476H42.8572C42.1584 12.3476 41.6926 12.9131 41.6926 13.5258V19.1341C41.6926 19.7467 42.205 20.3123 42.8572 20.3123H48.7267V18.6156H43.8354V18.7099Z" fill="#00985F"/>
<path d="M52.0342 20.4065V14.2799C52.0342 14.1856 52.1273 14.0914 52.2205 14.0914H57.1118V12.3947H51.2422C50.5435 12.3947 50.0776 12.9603 50.0776 13.573V20.3594H52.0342V20.4065Z" fill="#00985F"/>
<path d="M87.8105 16.4006C87.8105 13.62 86.5994 12.3005 83.618 12.3005H82.9192C79.9379 12.3005 78.7267 13.62 78.7267 16.4006C78.7267 19.134 79.9379 20.5008 82.9192 20.5008H83.5714C86.5994 20.4536 87.8105 19.134 87.8105 16.4006ZM83.5714 18.8041H82.9192C81.2888 18.8041 80.6366 18.0501 80.6366 16.4006C80.6366 14.7983 81.1956 13.9971 82.9192 13.9971H83.5714C85.2484 13.9971 85.854 14.7983 85.854 16.4006C85.854 18.0501 85.2484 18.8041 83.5714 18.8041Z" fill="#00985F"/>
<path d="M73.2298 11.1223H69.3168C66.382 11.1223 65.2174 12.6304 65.2174 15.2224C65.2174 15.6466 65.264 16.0236 65.3106 16.3535C65.6367 18.1915 66.7081 19.3225 69.4565 19.3225H70.3416V20.3594H72.2982V19.3225H73.1367C75.8851 19.3225 76.9565 18.1915 77.2826 16.3535C77.3292 16.0236 77.3758 15.6466 77.3758 15.2224C77.3292 12.6304 76.118 11.1223 73.2298 11.1223ZM70.2485 17.6731H69.3634C68.0124 17.6731 67.5466 17.1547 67.2671 16.3535C67.1739 16.0707 67.1739 15.6466 67.1739 15.2224C67.1739 13.5258 67.9659 12.8189 69.0839 12.8189H70.295V17.6731H70.2485ZM75.2795 16.4006C75 17.2018 74.4876 17.7202 73.1833 17.7202H72.2982V12.8189H73.5093C74.6274 12.8189 75.4193 13.5258 75.4193 15.2224C75.3727 15.6937 75.3727 16.0707 75.2795 16.4006Z" fill="#00985F"/>
</svg>
