<svg width="64" height="16" viewBox="0 0 64 16" fill="none" xmlns="http://www.w3.org/2000/svg">
<path fill-rule="evenodd" clip-rule="evenodd" d="M5.69125 0.000709534C4.50389 0.000709534 3.09614 1.14732 1.93496 3.07499C0.724687 5.0714 0.00268555 7.54291 0.00268555 9.6892C0.00268555 12.8312 1.75811 15.9999 5.69157 15.9999C9.62032 15.9999 11.3805 12.8312 11.3805 9.6892C11.3805 7.54291 10.6588 5.0714 9.45437 3.07499C8.2823 1.14732 6.8747 0.000709534 5.69125 0.000709534ZM36.4098 4.71483H40.392V15.1431H44.6587V4.71483H48.6393V0.857362H36.4098V4.71434V4.71483ZM57.7415 4.71483H63.9993V0.857362H57.7415C51.9925 0.857362 48.9221 3.72854 48.9221 7.99973C48.9221 12.2709 51.9925 15.1431 57.7415 15.1431H63.9993V11.2858H57.7415C55.0807 11.2858 53.3318 10.3305 53.3318 8.00022C53.3318 5.66993 55.0807 4.71483 57.7415 4.71483ZM27.7318 0.857362L25.4579 9.38389L23.1839 0.857362H15.647V15.1431H19.912V3.52348L23.0116 15.1431H27.9041L31.0053 3.51646V15.1431H35.272V0.857362H27.7318Z" fill="#E30613"/>
</svg>
