<svg width="69" height="32" viewBox="0 0 69 32" fill="none" xmlns="http://www.w3.org/2000/svg">
<path d="M33.8148 18.0985H34.887V20.552H35.6618L37.052 18.0985H38.2243L36.5556 20.9781V20.9983L38.3236 24.1407H37.1119L35.6815 21.5044H34.9074V24.1407H33.8345V18.0978H33.8148V18.0985ZM40.7269 19.7006C42.017 19.7006 43.0702 20.6535 43.0702 21.9714C43.0702 23.31 42.0374 24.2428 40.7466 24.2428C39.4552 24.2428 38.4224 23.31 38.4224 21.9714C38.4027 20.6333 39.4354 19.7006 40.7269 19.7006ZM43.9042 19.8014H44.9172V23.2086H46.2481V19.802H47.2605V23.2086H48.5915V19.802H49.6045V24.1407H43.9437V19.8014H43.9042ZM52.604 19.7006C53.8152 19.7006 54.4906 20.6132 54.4906 21.7489C54.4872 21.8915 54.474 22.0336 54.4511 22.1743H51.5311C51.591 22.9243 52.167 23.3302 52.8028 23.3302C53.2393 23.3302 53.6763 23.1273 54.014 22.8638L54.4313 23.6346C53.9942 24.0191 53.3386 24.263 52.7232 24.263C51.3126 24.263 50.4391 23.2287 50.4391 21.9915C50.4391 20.6333 51.3324 19.7006 52.604 19.7006ZM54.9869 23.2287C55.5036 23.1474 55.8808 22.7018 55.8808 21.1602V19.802H58.9797V24.1407H57.9265V20.6731H56.8938V21.1596C56.8938 23.0453 56.3975 24.1407 54.9869 24.181V23.2281V23.2287ZM61.9984 19.7006C63.2095 19.7006 63.8849 20.6132 63.8849 21.7489C63.8816 21.8915 63.8684 22.0336 63.8454 22.1743H60.9255C60.9853 22.9243 61.5613 23.3302 62.1971 23.3302C62.6336 23.3302 63.0706 23.1273 63.4083 22.8638L63.8256 23.6346C63.3886 24.0191 62.733 24.263 62.1175 24.263C60.7076 24.263 59.8334 23.2287 59.8334 21.9915C59.8334 20.6333 60.7273 19.7006 61.9984 19.7006ZM64.759 19.8014H65.8115V21.4647H66.3282L67.361 19.802H68.5327L67.182 21.8699V21.8907L68.6913 24.1407H67.4604L66.348 22.3773H65.7924V24.1407H64.7386V19.8014H64.7584H64.759ZM40.7269 23.31C41.422 23.31 41.9979 22.7623 41.9979 21.9512C41.9979 21.1602 41.422 20.5924 40.7262 20.5924C40.0318 20.5924 39.4756 21.1407 39.4756 21.9512C39.4756 22.7623 40.0311 23.31 40.7269 23.31ZM53.4183 21.4243C53.4183 20.8565 53.0405 20.5117 52.5639 20.5117C52.0281 20.5117 51.6305 20.8766 51.5311 21.4243H53.4183ZM62.8126 21.4243C62.8126 20.8565 62.4354 20.5117 61.9589 20.5117C61.4218 20.5117 61.0249 20.8766 60.9255 21.4243H62.8126Z" fill="#2D3540"/>
<path d="M48.6514 4.93806V15.1784C48.6522 15.2159 48.6456 15.2532 48.632 15.288C48.6183 15.3228 48.5979 15.3544 48.5719 15.3809C48.5459 15.4074 48.515 15.4283 48.4809 15.4422C48.4468 15.4562 48.4103 15.4629 48.3736 15.462H46.3278C46.2911 15.4629 46.2546 15.4562 46.2205 15.4422C46.1864 15.4283 46.1555 15.4074 46.1295 15.3809C46.1035 15.3544 46.0831 15.3228 46.0694 15.288C46.0558 15.2532 46.0492 15.2159 46.05 15.1784V4.93806C46.0492 4.90058 46.0558 4.86331 46.0694 4.82851C46.0831 4.79371 46.1035 4.7621 46.1295 4.73559C46.1555 4.70908 46.1864 4.68823 46.2205 4.67428C46.2546 4.66033 46.2911 4.65358 46.3278 4.65444H48.3736C48.4103 4.65358 48.4468 4.66033 48.4809 4.67428C48.515 4.68823 48.5459 4.70908 48.5719 4.73559C48.5979 4.7621 48.6183 4.79371 48.632 4.82851C48.6456 4.86331 48.6522 4.90058 48.6514 4.93806ZM64.6201 4.65444C64.6998 4.65444 64.7992 4.69478 64.8979 4.77608C64.9578 4.83659 64.9578 4.93806 64.9381 5.01936L61.5613 15.2799C61.5408 15.333 61.5054 15.3787 61.4594 15.4112C61.4135 15.4438 61.3592 15.4617 61.3033 15.4627H59.476C59.3569 15.4627 59.2575 15.4015 59.218 15.2799L57.2506 9.29816L55.2844 15.2793C55.2639 15.3324 55.2285 15.3781 55.1826 15.4106C55.1366 15.4431 55.0823 15.461 55.0264 15.462H53.1991C53.08 15.462 52.9806 15.4015 52.9411 15.2793L49.5644 5.01873C49.5446 4.93806 49.5446 4.85676 49.6039 4.77608C49.644 4.69478 49.7434 4.65444 49.8224 4.65444H52.1065C52.2256 4.65444 52.325 4.73512 52.3652 4.85676L54.172 10.9198L56.1586 4.85676C56.1791 4.80366 56.2145 4.75796 56.2604 4.72543C56.3064 4.69289 56.3607 4.67499 56.4166 4.67398H58.0253C58.1445 4.67398 58.2439 4.73512 58.2834 4.85676L60.2699 10.9198L62.0774 4.85676C62.0936 4.79932 62.1274 4.74869 62.1738 4.71228C62.2203 4.67588 62.2769 4.65561 62.3354 4.65444H64.6195H64.6201ZM68.0759 4.65444C68.2148 4.65444 68.3339 4.77608 68.3537 4.93806V15.1784C68.3545 15.2159 68.3479 15.2532 68.3342 15.288C68.3206 15.3228 68.3001 15.3544 68.2742 15.3809C68.2482 15.4074 68.2173 15.4283 68.1832 15.4422C68.1491 15.4562 68.1126 15.4629 68.0759 15.462H66.0301C65.9934 15.4629 65.9569 15.4562 65.9228 15.4422C65.8887 15.4283 65.8577 15.4074 65.8318 15.3809C65.8058 15.3544 65.7854 15.3228 65.7717 15.288C65.7581 15.2532 65.7514 15.2159 65.7523 15.1784V4.93806C65.7514 4.90058 65.7581 4.86331 65.7717 4.82851C65.7854 4.79371 65.8058 4.7621 65.8318 4.73559C65.8577 4.70908 65.8887 4.68823 65.9228 4.67428C65.9569 4.66033 65.9934 4.65358 66.0301 4.65444H68.0759ZM44.858 15.0978C44.9771 15.2396 44.8777 15.4419 44.6987 15.4419H42.1961C42.1468 15.4432 42.0979 15.433 42.0531 15.4119C42.0084 15.3908 41.969 15.3594 41.9381 15.3202L41.5214 14.7933C40.6472 15.3606 39.6138 15.706 38.5218 15.706C35.4636 15.706 32.9808 13.1711 32.9808 10.0482C32.9808 6.92525 35.4636 4.39037 38.5218 4.39037C41.5806 4.39037 44.0635 6.92525 44.0635 10.0482C44.0635 11.1637 43.7456 12.2181 43.1894 13.1099L44.858 15.0971V15.0978ZM23.9433 20.0654C24.46 20.2684 24.6587 21.0587 24.6982 21.4035C24.7779 22.0324 24.5995 22.2757 24.4007 22.2757C24.2019 22.2757 23.9235 22.0324 23.626 21.5459C23.3278 21.0587 23.2086 20.5116 23.3679 20.2274C23.4667 20.0446 23.6852 19.964 23.9439 20.0654H23.9433ZM20.9246 22.357C21.2425 22.357 21.5999 22.4988 21.9178 22.7824C22.5333 23.31 22.7123 23.9182 22.3944 24.3644C22.2154 24.5875 21.9178 24.7293 21.5802 24.7293C21.2425 24.7293 20.8851 24.6077 20.6468 24.3846C20.0906 23.898 19.9319 23.0862 20.2887 22.6406C20.4283 22.4579 20.6468 22.357 20.9246 22.357ZM13.9736 28.2171C6.42565 28.2171 0.308655 21.9713 0.308655 14.2658C0.308655 6.56033 6.42627 0.315144 13.973 0.315144C21.5203 0.315144 27.6379 6.56096 27.6379 14.2658C27.6379 16.8814 26.923 19.3356 25.7119 21.4243C25.6717 21.4848 25.5724 21.4646 25.5526 21.3833C25.076 17.9566 23.0302 16.0702 20.0511 15.503C19.7924 15.462 19.7529 15.3001 20.0906 15.2597C21.0042 15.1784 22.295 15.1986 22.9704 15.3202C23.0099 14.9755 23.0302 14.6106 23.0302 14.2457C23.0302 9.15572 18.9782 5.01873 13.9927 5.01873C9.00789 5.01873 4.95582 9.15572 4.95582 14.2457C4.95582 19.3356 9.00789 23.4726 13.9933 23.4726H14.41C14.2685 22.6493 14.2085 21.8136 14.231 20.978C14.2514 20.4102 14.3705 20.3289 14.6088 20.7751C15.8601 22.9854 17.6479 24.9726 21.1431 25.7636C24.0031 26.4127 26.8632 27.1627 29.9417 31.1573C30.2195 31.502 29.8028 31.8669 29.4849 31.5833C26.3471 28.744 23.4871 27.8112 20.8851 27.8112C17.9652 27.832 15.9792 28.2171 13.973 28.2171H13.9736ZM39.8923 12.8263L38.7996 11.4675C38.6811 11.3257 38.7805 11.1026 38.9589 11.1026H41.2627C41.3818 10.778 41.4417 10.4131 41.4417 10.0482C41.4417 8.36538 40.2102 6.90508 38.5218 6.90508C36.8341 6.90508 35.6019 8.36538 35.6019 10.0482C35.6019 11.7309 36.8341 13.1711 38.5218 13.1711C38.9984 13.1912 39.4756 13.0494 39.8923 12.8263Z" fill="#FF8C00"/>
</svg>
