<svg width="54" height="21" viewBox="0 0 54 21" fill="none" xmlns="http://www.w3.org/2000/svg">
<path d="M0.760498 7.70188V10.518L8.4644 9.68233V6.63433L0.760498 7.70188ZM3.21894 10.6893V20.3392H6.03942V10.405L3.21894 10.6893ZM9.50485 6.49018V20.3392H12.4768V6.07813L9.50485 6.49018ZM13.0305 6.00133V9.18718L17.3221 8.72158V5.40673L13.0305 6.00133ZM13.0305 11.5584V14.8023L15.8476 14.6508V11.3193L13.0305 11.5584ZM13.0305 17.1405V20.3392H17.3221V17.0128L13.0305 17.1405ZM28.4205 3.86368V20.3392H32.3166V3.32368L28.4205 3.86368ZM33.0441 3.22273V7.01248L38.7219 6.39688V2.43568L33.0441 3.22273ZM33.0441 9.86263V13.7226L36.7656 13.5222V9.54838L33.0441 9.86263ZM33.0441 16.5439V20.3392H38.7219V16.3749L33.0441 16.5439ZM18.4576 5.24908V20.3392H21.843V4.77973L18.4576 5.24908ZM22.4749 16.8595V20.3391H27.389V16.7133L22.4749 16.8595ZM51.4511 2.24938C50.2198 1.10218 48.4144 0.631631 46.4396 0.911381V5.11468C47.2393 5.07088 47.8873 5.36353 48.176 5.95273C48.6319 6.88168 48.1615 8.27548 47.052 9.56683C45.3396 11.5596 40.7858 15.6384 40.7858 15.6384L47.3229 15.4264C51.3173 11.5783 52.7517 9.24253 53.0091 6.32728C53.1443 4.78498 52.5766 3.29893 51.4511 2.24938ZM53.2394 20.3392V15.9411L39.98 16.335L53.2394 20.3392ZM39.98 16.3348L39.9814 20.3391H53.2394L39.98 16.3348ZM45.6774 1.00573C41.8254 1.81468 39.9339 4.60918 40.1522 9.16903L44.2592 8.80963C44.0721 6.23353 44.8712 5.62243 45.6794 5.28643L45.6774 1.00573Z" fill="#141414"/>
</svg>
