<svg width="44" height="38" viewBox="0 3 44 38" fill="none" xmlns="http://www.w3.org/2000/svg"><path fill-rule="evenodd" clip-rule="evenodd" d="M17.4 31.272c-1.44 0-2.253.852-2.462 2.534l-.167 1.746c-.063.724-.396 1.128-1.022 1.213-.167 0-.25.085-.25.256v.702c0 .15.083.234.25.234 1.377 0 2.128-.83 2.295-2.47l.166-1.532c.042-.575.146-.937.293-1.107.166-.213.5-.32.96-.32h1.084v5.131c0 .15.063.235.23.235h.792c.146 0 .23-.086.23-.235v-6.131c0-.17-.084-.256-.23-.256H17.4zm-8.909 3.833v-3.577c0-.17-.083-.256-.25-.256h-.814c-.146 0-.23.085-.23.256v4.002c0 1.64.773 2.47 2.296 2.47.75 0 1.44-.277 2.107-.83l.146.575c.062.106.146.127.208.127h.564c.167 0 .25-.064.25-.213v-6.153c0-.17-.104-.255-.271-.255h-.772c-.167 0-.25.085-.25.255v4.301c-.48.575-1.085.873-1.774.873-.813.021-1.21-.511-1.21-1.575zm-2.253-.213c0-2.044-1.085-3.066-3.275-3.066H1.335v-2.023h3.776c.167 0 .23-.106.25-.277v-.745c-.02-.191-.083-.277-.25-.277H.251c-.168 0-.251.107-.251.277v6.302c0 1.874.876 2.81 2.608 2.81h.23c2.273.043 3.4-.979 3.4-3.001zm-3.234-1.81c1.252 0 1.878.617 1.878 1.83 0 1.172-.626 1.768-1.878 1.79h-.417c-.835-.022-1.273-.49-1.273-1.427v-2.172h1.69v-.021zm35.696.852h-2.962v-2.406c0-.17-.083-.256-.25-.256h-.793c-.146 0-.209.085-.209.256v6.131c-.02.15.063.235.21.235h.792c.167 0 .25-.086.25-.235v-2.533h2.963v2.533c0 .15.104.235.25.235h.772c.167 0 .25-.086.25-.235v-6.131c0-.17-.083-.256-.25-.256h-.772c-.167 0-.25.085-.25.256v2.406zm-5.945-2.662h-.793c-.188 0-.271.085-.271.256v4.3c-.48.575-1.064.873-1.773.873-.793 0-1.19-.532-1.19-1.596v-3.577c0-.17-.083-.256-.23-.256h-.792c-.188 0-.271.085-.271.256v4.002c0 1.64.772 2.47 2.295 2.47.813 0 1.523-.277 2.128-.83l.125.575c.062.106.125.127.209.127h.563c.146 0 .23-.064.23-.213v-6.153c0-.149-.084-.234-.23-.234zm.209-2.47c0-.192-.084-.277-.25-.277h-5.008c-.188 0-.271.107-.271.277v.745c0 .17.104.277.271.277h5.007c.167 0 .25-.107.25-.277v-.745zm-8.346 3.726c.126.17.188.447.188.83v.15l-1.419.064c-1.606.106-2.399.83-2.399 2.192 0 1.47.814 2.215 2.441 2.215.584 0 1.148-.15 1.67-.49l.104.234c.104.107.166.128.229.128h.5c.126 0 .188-.064.188-.213v-4.322c0-1.533-.834-2.32-2.524-2.32-.73 0-1.377.106-1.94.34-.105.085-.146.17-.146.234v.745a.4.4 0 0 0 .104.213.939.939 0 0 0 .209.022c.521-.213 1.126-.298 1.773-.298.5.042.834.127 1.022.276zm-1.189 4.237c-.73 0-1.085-.34-1.085-1-.02-.66.334-1.001 1.022-1.065l1.42-.149.02 1.788c-.48.298-.939.426-1.377.426zM44 31.315l-.02-.043h-.272l-.417.98-.397-.98h-.292v1.554h.25v-1.085l.334.851h.209l.375-.851-.041 1.043.041.042h.21l.02-.042v-1.47zm-1.586 0l-.041-.043H41.37v.256h.376v1.256l.041.042h.188v-1.298h.397l.041-.043v-.17z" fill="#000"/><path fill-rule="evenodd" clip-rule="evenodd" d="M19.84 6c5.32 0 9.64 4.407 9.64 9.836 0 5.43-4.32 9.837-9.64 9.837s-9.638-4.407-9.638-9.837c0-5.429 4.319-9.836 9.639-9.836z" fill="url(#a)"/><path fill-rule="evenodd" clip-rule="evenodd" d="M12.622 9.321c4.652-.404 9.764-.425 14.437 0C25.286 7.277 22.72 6 19.841 6c-2.88 0-5.446 1.277-7.219 3.321zm14.542 12.945c-4.528.362-9.91.383-14.625 0 1.773 2.108 4.38 3.428 7.323 3.428 2.9 0 5.528-1.341 7.302-3.428zm-16.649-8.921c6.28-.106 12.392-.128 18.651 0 .21.81.313 1.64.313 2.491 0 .745-.083 1.49-.23 2.172-6.341.192-12.6.149-18.817 0a10.641 10.641 0 0 1-.23-2.172c0-.851.104-1.703.313-2.49z" fill="#000"/><path fill-rule="evenodd" clip-rule="evenodd" d="M34.028 10.535c0 5.386-4.298 9.751-9.577 9.751-5.299 0-9.576-4.365-9.576-9.751 0-5.387 4.298-9.751 9.576-9.751 5.279 0 9.577 4.364 9.577 9.75z" fill="url(#b)"/><path fill-rule="evenodd" clip-rule="evenodd" d="M19.84 6c5.32 0 9.64 4.407 9.64 9.836 0 5.43-4.32 9.837-9.64 9.837s-9.638-4.407-9.638-9.837c0-5.429 4.319-9.836 9.639-9.836z" fill="url(#c)"/><defs><linearGradient id="a" x1="10.198" y1="15.843" x2="29.49" y2="15.843" gradientUnits="userSpaceOnUse"><stop stop-color="#D89141"/><stop offset=".1" stop-color="#FBB034"/><stop offset=".3" stop-color="#FFC233"/><stop offset=".489" stop-color="#FFDD2F"/><stop offset=".65" stop-color="#FFF32A"/><stop offset=".737" stop-color="#FFE42F"/><stop offset=".887" stop-color="#F2C837"/><stop offset="1" stop-color="#E6B13B"/></linearGradient><radialGradient id="b" cx="0" cy="0" r="1" gradientUnits="userSpaceOnUse" gradientTransform="matrix(9.56738 0 0 9.76356 24.44 10.533)"><stop stop-color="#fff" stop-opacity=".7"/><stop offset="1" stop-color="#fff" stop-opacity="0"/></radialGradient><radialGradient id="c" cx="0" cy="0" r="1" gradientUnits="userSpaceOnUse" gradientTransform="matrix(9.64573 0 0 9.8435 19.844 15.843)"><stop offset=".9" stop-color="#fff" stop-opacity="0"/><stop offset="1" stop-color="#fff" stop-opacity=".3"/></radialGradient></defs></svg>