<svg width="105" height="32" viewBox="0 0 105 32" fill="none" xmlns="http://www.w3.org/2000/svg"><path d="M16.817 8.059v8.247a.64.64 0 0 1-.652.66h-.979c-.046 0-.093.047-.093.094v6.928c.233 0 .466.047.745.047 4.38 0 7.92-3.581 7.92-8.011 0-4.1-3.028-7.494-6.941-7.965zm-.186 12.348a.99.99 0 0 1-.979-.99.99.99 0 0 1 .979-.99c.558 0 .978.471.978.99.046.518-.42.99-.979.99zm2.329 0a.99.99 0 0 1-.979-.99.99.99 0 0 1 .979-.99c.559 0 .978.471.978.99 0 .518-.42.99-.978.99zm2.329 0c-.56 0-.978-.472-.978-.99a.99.99 0 0 1 .978-.99c.559 0 .978.471.978.99 0 .518-.42.99-.978.99z" fill="#00985F"/><path d="M15.838 8.012c-4.378 0-7.919 3.582-7.919 8.012 0 3.864 2.656 7.069 6.243 7.823v-7.21c0-.33.279-.613.605-.66h.978c.047 0 .094-.048.094-.095v-7.87zm-1.537 6.598c-.559 0-.978-.472-.978-.99a.99.99 0 0 1 .978-.99.99.99 0 0 1 0 1.98zm80.823-2.215v3.016h-4.006v-3.016h-2.003v8.012h2.003v-3.252h4.006v3.252h1.957v-8.012h-1.957zm-32.981.895c-.326-.707-.978-1.084-1.63-1.084-.653 0-1.305.377-1.631 1.084l-3.214 7.117h2.096l.699-1.697h4.1l.698 1.697h2.096l-3.214-7.117zm-3.028 3.818l1.211-2.922c.047-.095.093-.095.14-.095.046 0 .14 0 .14.095l1.21 2.922h-2.701zm-20.544-6.174c-.931 0-1.537.518-1.956 1.508l-2.562 6.032-2.562-6.032c-.42-.99-1.025-1.508-1.957-1.508-.885 0-1.77.612-1.77 1.98v7.445h1.957v-7.21l2.608 5.985c.326.848.932 1.367 1.724 1.367.838 0 1.397-.519 1.723-1.367l2.61-5.985v7.258h1.956V12.96c0-1.366-.886-2.026-1.77-2.026zm5.264 7.776c-.093 0-.186-.094-.186-.189v-1.413h4.938v-1.65h-4.938v-1.225c0-.095.093-.189.186-.189h4.892v-1.696h-5.87c-.699 0-1.164.565-1.164 1.178v5.608c0 .613.512 1.178 1.164 1.178h5.87v-1.696h-4.892v.094zm8.199 1.697V14.28c0-.094.093-.189.187-.189h4.89v-1.696h-5.869c-.698 0-1.164.565-1.164 1.178v6.786h1.956v.047zM87.81 16.4c0-2.78-1.21-4.1-4.192-4.1h-.699c-2.981 0-4.192 1.32-4.192 4.1 0 2.734 1.21 4.1 4.192 4.1h.652c3.028-.046 4.24-1.366 4.24-4.1zm-4.239 2.404h-.652c-1.63 0-2.282-.754-2.282-2.403 0-1.603.559-2.404 2.282-2.404h.652c1.677 0 2.283.801 2.283 2.404 0 1.65-.606 2.403-2.283 2.403zM73.23 11.122h-3.913c-2.935 0-4.1 1.508-4.1 4.1 0 .425.047.802.094 1.132.326 1.838 1.397 2.969 4.145 2.969h.886v1.036h1.956v-1.037h.839c2.748 0 3.82-1.13 4.146-2.968a8 8 0 0 0 .093-1.132c-.047-2.592-1.258-4.1-4.146-4.1zm-2.981 6.551h-.886c-1.35 0-1.816-.518-2.096-1.32-.093-.282-.093-.706-.093-1.13 0-1.697.792-2.404 1.91-2.404h1.211v4.854h-.046zm5.03-1.272c-.279.8-.791 1.32-2.096 1.32h-.885v-4.902h1.211c1.118 0 1.91.707 1.91 2.403-.046.472-.046.849-.14 1.179z" fill="#00985F"/></svg>