<svg width="64" height="16" viewBox="0 0 64 16" fill="none" xmlns="http://www.w3.org/2000/svg"><path fill-rule="evenodd" clip-rule="evenodd" d="M5.691 0C4.504 0 3.096 1.148 1.935 3.076.725 5.071.003 7.543.003 9.689c0 3.142 1.755 6.31 5.689 6.31 3.928 0 5.688-3.168 5.688-6.31 0-2.146-.721-4.618-1.926-6.614C8.282 1.147 6.874.001 5.691.001zM36.41 4.716h3.982v10.428h4.267V4.715h3.98V.857H36.41v3.857zm21.332 0h6.257V.857h-6.258C51.994.857 48.922 3.73 48.922 8s3.07 7.143 8.82 7.143h6.257v-3.857h-6.258c-2.66 0-4.41-.955-4.41-3.286 0-2.33 1.75-3.285 4.41-3.285zM27.732.857l-2.274 8.527L23.184.857h-7.537v14.286h4.265V3.523l3.1 11.62h4.892l3.101-11.627v11.627h4.267V.857h-7.54z" fill="#E30613"/></svg>