<svg width="69" height="32" viewBox="0 0 69 32" fill="none" xmlns="http://www.w3.org/2000/svg"><path d="M33.815 18.099h1.072v2.453h.775l1.39-2.453h1.172l-1.668 2.88v.02l1.768 3.142h-1.212l-1.43-2.637h-.775v2.637h-1.072v-6.043h-.02zm6.912 1.602c1.29 0 2.343.953 2.343 2.27 0 1.339-1.033 2.272-2.323 2.272-1.292 0-2.325-.933-2.325-2.272-.02-1.338 1.013-2.27 2.305-2.27zm3.177.1h1.013v3.408h1.331v-3.407h1.013v3.407h1.33v-3.407h1.014v4.339h-5.661V19.8h-.04zm8.7-.1c1.211 0 1.887.912 1.887 2.048a3.11 3.11 0 0 1-.04.425h-2.92c.06.75.636 1.156 1.272 1.156.436 0 .873-.203 1.211-.466l.417.77c-.437.385-1.092.629-1.708.629-1.41 0-2.284-1.034-2.284-2.272 0-1.358.893-2.29 2.165-2.29zm2.383 3.528c.517-.082.894-.527.894-2.069v-1.358h3.099v4.339h-1.053v-3.468h-1.033v.487c0 1.885-.496 2.98-1.907 3.021v-.953zm7.011-3.528c1.212 0 1.887.912 1.887 2.048a3.078 3.078 0 0 1-.04.425h-2.92c.06.75.636 1.156 1.272 1.156.437 0 .874-.203 1.211-.466l.418.77c-.437.385-1.093.629-1.709.629-1.41 0-2.284-1.034-2.284-2.272 0-1.358.894-2.29 2.165-2.29zm2.761.1h1.052v1.664h.517l1.033-1.663h1.172l-1.351 2.068v.02l1.51 2.25H67.46l-1.112-1.763h-.556v1.764H64.74V19.8h.02zM40.727 23.31c.695 0 1.27-.548 1.27-1.359 0-.79-.575-1.359-1.27-1.359-.695 0-1.251.549-1.251 1.36 0 .81.555 1.358 1.25 1.358zm12.691-1.886c0-.567-.377-.912-.854-.912-.536 0-.934.365-1.033.912h1.887zm9.395 0c0-.567-.378-.912-.854-.912-.537 0-.934.365-1.034.912h1.888z" fill="#2D3540"/><path d="M48.651 4.938v10.24a.285.285 0 0 1-.08.203.27.27 0 0 1-.197.081h-2.046a.265.265 0 0 1-.199-.081.278.278 0 0 1-.079-.203V4.938a.284.284 0 0 1 .08-.202.271.271 0 0 1 .198-.082h2.046a.267.267 0 0 1 .198.082.278.278 0 0 1 .08.202zm15.97-.284c.079 0 .178.04.277.122.06.06.06.162.04.243l-3.377 10.26a.287.287 0 0 1-.258.184h-1.827a.257.257 0 0 1-.258-.183l-1.967-5.982-1.967 5.981a.28.28 0 0 1-.258.183H53.2a.256.256 0 0 1-.258-.183L49.564 5.02a.272.272 0 0 1 .04-.243c.04-.081.14-.122.218-.122h2.284c.12 0 .219.081.26.203l1.806 6.063 1.987-6.063a.279.279 0 0 1 .258-.183h1.608c.12 0 .219.061.258.183l1.987 6.063 1.807-6.063a.28.28 0 0 1 .097-.145.27.27 0 0 1 .161-.058h2.285zm3.455 0c.139 0 .258.122.278.284v10.24a.283.283 0 0 1-.08.203.27.27 0 0 1-.198.081H66.03a.265.265 0 0 1-.198-.081.278.278 0 0 1-.08-.203V4.938a.283.283 0 0 1 .08-.202.27.27 0 0 1 .198-.082h2.046zM44.858 15.098c.12.142.02.344-.16.344h-2.502a.316.316 0 0 1-.258-.122l-.417-.527a5.52 5.52 0 0 1-3 .913c-3.057 0-5.54-2.535-5.54-5.658s2.483-5.658 5.54-5.658c3.06 0 5.542 2.535 5.542 5.658 0 1.116-.317 2.17-.874 3.062l1.669 1.987zm-20.915 4.967c.517.203.716.994.755 1.338.08.63-.099.873-.297.873-.2 0-.477-.244-.775-.73-.298-.487-.417-1.034-.258-1.319.099-.182.317-.263.576-.162zm-3.018 2.292c.317 0 .675.142.993.425.615.528.794 1.136.476 1.582a1.037 1.037 0 0 1-.814.365c-.337 0-.695-.121-.933-.344-.556-.487-.715-1.299-.358-1.744.14-.183.358-.284.636-.284zm-6.951 5.86C6.426 28.217.309 21.971.309 14.266.309 6.56 6.426.316 13.973.316s13.665 6.245 13.665 13.95c0 2.615-.715 5.07-1.926 7.158-.04.06-.14.04-.16-.04-.476-3.427-2.522-5.314-5.5-5.881-.26-.041-.3-.203.039-.243.913-.082 2.204-.061 2.88.06.039-.345.06-.71.06-1.074 0-5.09-4.053-9.227-9.038-9.227s-9.037 4.137-9.037 9.227c0 5.09 4.052 9.227 9.037 9.227h.417a12.709 12.709 0 0 1-.179-2.495c.02-.568.14-.65.378-.203 1.251 2.21 3.039 4.198 6.534 4.989 2.86.649 5.72 1.399 8.799 5.393.277.345-.14.71-.457.426-3.138-2.839-5.998-3.772-8.6-3.772-2.92.021-4.906.406-6.912.406zm25.918-15.39l-1.092-1.36c-.119-.141-.02-.364.159-.364h2.304a3.1 3.1 0 0 0 .179-1.055c0-1.683-1.232-3.143-2.92-3.143s-2.92 1.46-2.92 3.143c0 1.683 1.232 3.123 2.92 3.123.476.02.954-.122 1.37-.345z" fill="#FF8C00"/></svg>