<svg width="54" height="21" viewBox="0 0 54 21" fill="none" xmlns="http://www.w3.org/2000/svg"><path d="M.76 7.702v2.816l7.704-.836V6.634L.76 7.702zm2.459 2.987v9.65h2.82v-9.934l-2.82.284zM9.505 6.49v13.85h2.972V6.077l-2.972.412zm3.525-.489v3.186l4.292-.465V5.407L13.031 6zm0 5.557v3.244l2.818-.151v-3.332l-2.818.24zm0 5.582v3.2h4.292v-3.327l-4.291.127zM28.42 3.864v16.475h3.897V3.324l-3.896.54zm4.624-.641v3.79l5.678-.616V2.436l-5.678.787zm0 6.64v3.86l3.722-.2V9.547l-3.722.315zm0 6.68v3.796h5.678v-3.964l-5.678.169zM18.458 5.25v15.09h3.385V4.78l-3.385.47zm4.017 11.61v3.48h4.914v-3.626l-4.914.146zM51.45 2.25C50.22 1.102 48.414.632 46.44.911v4.204c.8-.044 1.447.249 1.736.838.456.929-.015 2.322-1.124 3.614-1.712 1.993-6.266 6.071-6.266 6.071l6.537-.212c3.994-3.848 5.429-6.183 5.686-9.099a4.947 4.947 0 0 0-1.558-4.078zm1.788 18.09v-4.398l-13.259.394 13.26 4.004zM39.98 16.335l.001 4.004H53.24l-13.26-4.004zm5.697-15.33c-3.852.81-5.743 3.604-5.525 8.164l4.107-.36c-.187-2.575.612-3.187 1.42-3.523l-.002-4.28z" fill="#141414"/></svg>